<?xml version="1.0" encoding="UTF-8" standalone="no"?>
<!DOCTYPE svg PUBLIC "-//W3C//DTD SVG 1.1//EN"
 "http://www.w3.org/Graphics/SVG/1.1/DTD/svg11.dtd">
<!-- Generated by graphviz version 9.0.0 (20230911.1827)
 -->
<!-- Pages: 1 -->
<svg width="1044pt" height="210pt"
 viewBox="0.00 0.00 1043.50 210.00" xmlns="http://www.w3.org/2000/svg" xmlns:xlink="http://www.w3.org/1999/xlink">
<g id="graph0" class="graph" transform="scale(1 1) rotate(0) translate(4 206)">
<polygon fill="white" stroke="none" points="-4,4 -4,-206 1039.5,-206 1039.5,4 -4,4"/>
<!-- 4372829712 -->
<g id="node1" class="node">
<title>4372829712</title>
<polygon fill="none" stroke="black" points="585.25,-137.5 585.25,-173.5 746.25,-173.5 746.25,-137.5 585.25,-137.5"/>
<text text-anchor="middle" x="625.12" y="-150.7" font-family="Times,serif" font-size="14.00">data 6.8814</text>
<polyline fill="none" stroke="black" points="665,-138 665,-173.5"/>
<text text-anchor="middle" x="705.62" y="-150.7" font-family="Times,serif" font-size="14.00">grad 1.0000</text>
</g>
<!-- 4375679232+ -->
<g id="node9" class="node">
<title>4375679232+</title>
<ellipse fill="none" stroke="black" cx="811.5" cy="-127.5" rx="27" ry="18"/>
<text text-anchor="middle" x="811.5" y="-122.45" font-family="Times,serif" font-size="14.00">+</text>
</g>
<!-- 4372829712&#45;&gt;4375679232+ -->
<g id="edge9" class="edge">
<title>4372829712&#45;&gt;4375679232+</title>
<path fill="none" stroke="black" d="M746.61,-139.94C756.1,-138.1 765.4,-136.28 773.84,-134.64"/>
<polygon fill="black" stroke="black" points="774.49,-138.08 783.64,-132.73 773.16,-131.21 774.49,-138.08"/>
</g>
<!-- 4372831248 -->
<g id="node2" class="node">
<title>4372831248</title>
<polygon fill="none" stroke="black" points="293.75,-110.5 293.75,-146.5 454.75,-146.5 454.75,-110.5 293.75,-110.5"/>
<text text-anchor="middle" x="333.62" y="-123.7" font-family="Times,serif" font-size="14.00">data 0.0000</text>
<polyline fill="none" stroke="black" points="373.5,-111 373.5,-146.5"/>
<text text-anchor="middle" x="414.12" y="-123.7" font-family="Times,serif" font-size="14.00">grad 1.0000</text>
</g>
<!-- 4375633872+ -->
<g id="node13" class="node">
<title>4375633872+</title>
<ellipse fill="none" stroke="black" cx="520" cy="-100.5" rx="27" ry="18"/>
<text text-anchor="middle" x="520" y="-95.45" font-family="Times,serif" font-size="14.00">+</text>
</g>
<!-- 4372831248&#45;&gt;4375633872+ -->
<g id="edge5" class="edge">
<title>4372831248&#45;&gt;4375633872+</title>
<path fill="none" stroke="black" d="M455.11,-112.94C464.6,-111.1 473.9,-109.28 482.34,-107.64"/>
<polygon fill="black" stroke="black" points="482.99,-111.08 492.14,-105.73 481.66,-104.21 482.99,-111.08"/>
</g>
<!-- 4372831248* -->
<g id="node3" class="node">
<title>4372831248*</title>
<ellipse fill="none" stroke="black" cx="228.5" cy="-128.5" rx="27" ry="18"/>
<text text-anchor="middle" x="228.5" y="-123.45" font-family="Times,serif" font-size="14.00">*</text>
</g>
<!-- 4372831248*&#45;&gt;4372831248 -->
<g id="edge1" class="edge">
<title>4372831248*&#45;&gt;4372831248</title>
<path fill="none" stroke="black" d="M255.87,-128.5C263.67,-128.5 272.7,-128.5 282.2,-128.5"/>
<polygon fill="black" stroke="black" points="282.02,-132 292.02,-128.5 282.02,-125 282.02,-132"/>
</g>
<!-- 4372830768 -->
<g id="node4" class="node">
<title>4372830768</title>
<polygon fill="none" stroke="black" points="291.5,-55.5 291.5,-91.5 457,-91.5 457,-55.5 291.5,-55.5"/>
<text text-anchor="middle" x="333.62" y="-68.7" font-family="Times,serif" font-size="14.00">data &#45;6.0000</text>
<polyline fill="none" stroke="black" points="375.75,-56 375.75,-91.5"/>
<text text-anchor="middle" x="416.38" y="-68.7" font-family="Times,serif" font-size="14.00">grad 1.0000</text>
</g>
<!-- 4372830768&#45;&gt;4375633872+ -->
<g id="edge10" class="edge">
<title>4372830768&#45;&gt;4375633872+</title>
<path fill="none" stroke="black" d="M457.2,-88.89C466,-90.54 474.58,-92.16 482.42,-93.63"/>
<polygon fill="black" stroke="black" points="481.72,-97.06 492.2,-95.47 483.01,-90.18 481.72,-97.06"/>
</g>
<!-- 4372830768* -->
<g id="node5" class="node">
<title>4372830768*</title>
<ellipse fill="none" stroke="black" cx="228.5" cy="-73.5" rx="27" ry="18"/>
<text text-anchor="middle" x="228.5" y="-68.45" font-family="Times,serif" font-size="14.00">*</text>
</g>
<!-- 4372830768*&#45;&gt;4372830768 -->
<g id="edge2" class="edge">
<title>4372830768*&#45;&gt;4372830768</title>
<path fill="none" stroke="black" d="M255.87,-73.5C262.97,-73.5 271.07,-73.5 279.64,-73.5"/>
<polygon fill="black" stroke="black" points="279.59,-77 289.59,-73.5 279.59,-70 279.59,-77"/>
</g>
<!-- 4371614736 -->
<g id="node6" class="node">
<title>4371614736</title>
<polygon fill="none" stroke="black" points="0,-55.5 0,-91.5 165.5,-91.5 165.5,-55.5 0,-55.5"/>
<text text-anchor="middle" x="39.88" y="-68.7" font-family="Times,serif" font-size="14.00">data 2.0000</text>
<polyline fill="none" stroke="black" points="79.75,-56 79.75,-91.5"/>
<text text-anchor="middle" x="122.62" y="-68.7" font-family="Times,serif" font-size="14.00">grad &#45;3.0000</text>
</g>
<!-- 4371614736&#45;&gt;4372830768* -->
<g id="edge7" class="edge">
<title>4371614736&#45;&gt;4372830768*</title>
<path fill="none" stroke="black" d="M165.7,-73.5C174.14,-73.5 182.4,-73.5 189.98,-73.5"/>
<polygon fill="black" stroke="black" points="189.77,-77 199.77,-73.5 189.77,-70 189.77,-77"/>
</g>
<!-- 4370995952 -->
<g id="node7" class="node">
<title>4370995952</title>
<polygon fill="none" stroke="black" points="2.25,-165.5 2.25,-201.5 163.25,-201.5 163.25,-165.5 2.25,-165.5"/>
<text text-anchor="middle" x="42.12" y="-178.7" font-family="Times,serif" font-size="14.00">data 1.0000</text>
<polyline fill="none" stroke="black" points="82,-166 82,-201.5"/>
<text text-anchor="middle" x="122.62" y="-178.7" font-family="Times,serif" font-size="14.00">grad 0.0000</text>
</g>
<!-- 4370995952&#45;&gt;4372831248* -->
<g id="edge12" class="edge">
<title>4370995952&#45;&gt;4372831248*</title>
<path fill="none" stroke="black" d="M142.08,-165.07C149.99,-162.33 157.98,-159.43 165.5,-156.5 175.41,-152.64 186.03,-148.02 195.62,-143.67"/>
<polygon fill="black" stroke="black" points="196.94,-146.92 204.56,-139.55 194.01,-140.56 196.94,-146.92"/>
</g>
<!-- 4375679232 -->
<g id="node8" class="node">
<title>4375679232</title>
<polygon fill="none" stroke="black" points="874.5,-109.5 874.5,-145.5 1035.5,-145.5 1035.5,-109.5 874.5,-109.5"/>
<text text-anchor="middle" x="914.38" y="-122.7" font-family="Times,serif" font-size="14.00">data 0.8814</text>
<polyline fill="none" stroke="black" points="954.25,-110 954.25,-145.5"/>
<text text-anchor="middle" x="994.88" y="-122.7" font-family="Times,serif" font-size="14.00">grad 1.0000</text>
</g>
<!-- 4375679232+&#45;&gt;4375679232 -->
<g id="edge3" class="edge">
<title>4375679232+&#45;&gt;4375679232</title>
<path fill="none" stroke="black" d="M838.78,-127.5C845.9,-127.5 854.02,-127.5 862.58,-127.5"/>
<polygon fill="black" stroke="black" points="862.54,-131 872.54,-127.5 862.54,-124 862.54,-131"/>
</g>
<!-- 4372782864 -->
<g id="node10" class="node">
<title>4372782864</title>
<polygon fill="none" stroke="black" points="0,-0.5 0,-36.5 165.5,-36.5 165.5,-0.5 0,-0.5"/>
<text text-anchor="middle" x="42.12" y="-13.7" font-family="Times,serif" font-size="14.00">data &#45;3.0000</text>
<polyline fill="none" stroke="black" points="84.25,-1 84.25,-36.5"/>
<text text-anchor="middle" x="124.88" y="-13.7" font-family="Times,serif" font-size="14.00">grad 2.0000</text>
</g>
<!-- 4372782864&#45;&gt;4372830768* -->
<g id="edge8" class="edge">
<title>4372782864&#45;&gt;4372830768*</title>
<path fill="none" stroke="black" d="M139.38,-36.88C148.16,-39.97 157.11,-43.24 165.5,-46.5 175.28,-50.3 185.79,-54.73 195.32,-58.9"/>
<polygon fill="black" stroke="black" points="193.64,-61.98 204.2,-62.83 196.47,-55.58 193.64,-61.98"/>
</g>
<!-- 4372783008 -->
<g id="node11" class="node">
<title>4372783008</title>
<polygon fill="none" stroke="black" points="2.25,-110.5 2.25,-146.5 163.25,-146.5 163.25,-110.5 2.25,-110.5"/>
<text text-anchor="middle" x="42.12" y="-123.7" font-family="Times,serif" font-size="14.00">data 0.0000</text>
<polyline fill="none" stroke="black" points="82,-111 82,-146.5"/>
<text text-anchor="middle" x="122.62" y="-123.7" font-family="Times,serif" font-size="14.00">grad 1.0000</text>
</g>
<!-- 4372783008&#45;&gt;4372831248* -->
<g id="edge6" class="edge">
<title>4372783008&#45;&gt;4372831248*</title>
<path fill="none" stroke="black" d="M163.61,-128.5C172.73,-128.5 181.67,-128.5 189.85,-128.5"/>
<polygon fill="black" stroke="black" points="189.69,-132 199.69,-128.5 189.69,-125 189.69,-132"/>
</g>
<!-- 4375633872 -->
<g id="node12" class="node">
<title>4375633872</title>
<polygon fill="none" stroke="black" points="583,-82.5 583,-118.5 748.5,-118.5 748.5,-82.5 583,-82.5"/>
<text text-anchor="middle" x="625.12" y="-95.7" font-family="Times,serif" font-size="14.00">data &#45;6.0000</text>
<polyline fill="none" stroke="black" points="667.25,-83 667.25,-118.5"/>
<text text-anchor="middle" x="707.88" y="-95.7" font-family="Times,serif" font-size="14.00">grad 1.0000</text>
</g>
<!-- 4375633872&#45;&gt;4375679232+ -->
<g id="edge11" class="edge">
<title>4375633872&#45;&gt;4375679232+</title>
<path fill="none" stroke="black" d="M748.7,-115.89C757.5,-117.54 766.08,-119.16 773.92,-120.63"/>
<polygon fill="black" stroke="black" points="773.22,-124.06 783.7,-122.47 774.51,-117.18 773.22,-124.06"/>
</g>
<!-- 4375633872+&#45;&gt;4375633872 -->
<g id="edge4" class="edge">
<title>4375633872+&#45;&gt;4375633872</title>
<path fill="none" stroke="black" d="M547.37,-100.5C554.47,-100.5 562.57,-100.5 571.14,-100.5"/>
<polygon fill="black" stroke="black" points="571.09,-104 581.09,-100.5 571.09,-97 571.09,-104"/>
</g>
</g>
</svg>
